# xmcd
#
# Track frame offsets:
#	153
#	10965
#	22498
#	30650
#	34873
#	42833
#	52727
#	60466
#	64863
#	72487
#	85360
#	100245
#	115464
#	130951
#	140300
#	145146
#	161379
#	169321
#	182768
#	194723
#	207873
#	219329
#	236206
#	251416
#
# Disc length: 3532 seconds
#
# Revision: 0
# Processed by: cddbd v1.5.2PL0 Copyright (c) Steve Scherf et al.
# Submitted via: EasyCDDAExtractor 16.0.6.1
#
DISCID=660dca18
DTITLE=Τσίτρα Νίτσα - Μακεδονικά χορευτικά τραγούδια-Ν. Τσίτρα
DYEAR=2000
DGENRE=Παραδοσιακή
TTITLE0=Σήμερα είναι τ' Αη Λιά
TTITLE1=Κίνησε ο Κώτσος, κίνησε
TTITLE2=Τα παπούτσι στο ζωνάρι
TTITLE3=Πού τού 'βρες Αννούδα μ'
TTITLE4=Σαν απόψε τέτοιαν ώρα
TTITLE5=Μήλο μου κόκκινο
TTITLE6=Διαμαντένιος σταυρός
TTITLE7=Γερακίνα
TTITLE8=Στον Σαρμουσακλή
TTITLE9=Ένα Σάββατο βράδυ
TTITLE10=Τι ήθελα και σ' αγαπούσα
TTITLE11=Ο Παναγής μας
TTITLE12=Του Ντούλα η μάννα θλίβεται
TTITLE13=Μπήτε κορίτσια στο χορό
TTITLE14=Πέρδικα περιστέρα
TTITLE15=Δυό ήλιοι, δυό φεγγάρια
TTITLE16=Πάρε το οργανάκι σου
TTITLE17=Τώρα που  στήσαν τον χορό
TTITLE18=Το μαντηλούδι
TTITLE19=Δώδεκα ευζωνάκια
TTITLE20=Μη μού στέλνεις μάννα
TTITLE21=Εμένα μη με κλαις
TTITLE22=Μακεδονία ξακουστή
TTITLE23=Τρελλένομαι μαννούλα μου
EXTD=
EXTT0=
EXTT1=
EXTT2=
EXTT3=
EXTT4=
EXTT5=
EXTT6=
EXTT7=
EXTT8=
EXTT9=
EXTT10=
EXTT11=
EXTT12=
EXTT13=
EXTT14=
EXTT15=
EXTT16=
EXTT17=
EXTT18=
EXTT19=
EXTT20=
EXTT21=
EXTT22=
EXTT23=
PLAYORDER=
